<?xml version="1.0" encoding="UTF-8" standalone="no"?>
<svg
   xmlns:dc="http://purl.org/dc/elements/1.1/"
   xmlns:cc="http://creativecommons.org/ns#"
   xmlns:rdf="http://www.w3.org/1999/02/22-rdf-syntax-ns#"
   xmlns:svg="http://www.w3.org/2000/svg"
   xmlns="http://www.w3.org/2000/svg"
   viewBox="0 0 431.56 244.50667"
   height="244.50667"
   width="431.56"
   xml:space="preserve"
   id="svg3732"
   version="1.1"><metadata
     id="metadata3738"><rdf:RDF><cc:Work
         rdf:about=""><dc:format>image/svg+xml</dc:format><dc:type
           rdf:resource="http://purl.org/dc/dcmitype/StillImage" /><dc:title></dc:title></cc:Work></rdf:RDF></metadata><defs
     id="defs3736" /><g
     transform="matrix(1.3333333,0,0,-1.3333333,0,244.50667)"
     id="g3740"><g
       transform="scale(0.1)"
       id="g3742"><path
         id="path3744"
         style="fill:#7b6440;fill-opacity:1;fill-rule:nonzero;stroke:none"
         d="m 779.328,1091.52 c -25.676,0 -50.402,18.59 -58.785,44.19 -2.898,9.43 -3.922,19.4 -3.305,30.94 -0.183,3.24 -0.207,6.63 -0.07,10.12 -0.895,28.59 11.422,87.91 46.352,109.33 1.839,1.12 3.769,2.11 5.765,2.95 8.235,3.45 17.121,5.2 26.418,5.2 18.488,0 38.07,-6.89 58.192,-20.49 7.789,-5.06 34.203,-24.66 31.543,-53.32 0.367,-3.41 0.308,-6.84 -0.176,-10.3 0.742,-5.32 0.468,-10.71 -0.832,-16.17 -3.625,-15.22 -15.653,-27.56 -30.762,-31.58 -0.742,-0.21 -1.477,-0.38 -2.184,-0.53 -7.476,-9.47 -19.777,-28.51 -22.535,-35.42 -0.23,-0.62 -0.426,-1.11 -0.683,-1.73 -8.649,-20.48 -27.399,-33.19 -48.93,-33.19 0,0 0,0 -0.008,0" /><path
         id="path3746"
         style="fill:#7b6440;fill-opacity:1;fill-rule:nonzero;stroke:none"
         d="m 1022.87,1180.09 c -32.179,0 -59.823,25.03 -67.964,49.22 -0.105,0.32 -0.211,0.64 -0.308,0.97 -2.489,8.02 -3.383,16.84 -2.676,26.29 -0.258,3.28 -0.301,6.64 -0.125,10.05 -1.758,34.72 21.25,82.22 56.813,96.11 0.73,0.29 1.47,0.56 2.22,0.8 6.76,2.22 14.43,3.34 22.81,3.34 18.62,0 55,-6.35 73.2,-30.19 6.62,-8.68 9.58,-19.46 8.51,-30.09 0.33,-3.35 0.27,-6.75 -0.2,-10.12 0.88,-6.28 0.36,-12.76 -1.64,-18.97 -3.44,-10.68 -10.92,-19.46 -20.66,-24.58 -4.66,-6.21 -11.75,-21.04 -15.34,-28.54 -9.03,-18.91 -16.18,-33.84 -34.51,-40.77 -0.62,-0.23 -1.24,-0.45 -1.87,-0.65 -5.85,-1.9 -12,-2.87 -18.26,-2.87 v 0" /><path
         id="path3748"
         style="fill:#7b6440;fill-opacity:1;fill-rule:nonzero;stroke:none"
         d="m 939.445,1152.02 c -31.89,0 -58.965,24.28 -68.242,47.11 -0.453,1.12 -0.851,2.25 -1.211,3.4 -2.492,8.02 -3.387,16.84 -2.676,26.28 -0.261,3.28 -0.304,6.64 -0.128,10.07 -1.754,34.82 21.601,82.43 57.652,96.35 0.676,0.26 1.359,0.5 2.055,0.73 7.074,2.32 15.16,3.5 24.027,3.5 8.445,0 51.648,-1.52 72.908,-31.61 5.97,-8.47 8.59,-18.72 7.57,-28.82 0.34,-3.35 0.27,-6.75 -0.2,-10.12 0.92,-6.55 0.32,-13.31 -1.89,-19.73 -3.59,-10.46 -11.07,-19.01 -20.72,-23.98 -4.92,-6.52 -12.422,-22.69 -15.805,-29.97 -8.469,-18.26 -15.164,-32.69 -33.109,-39.69 -1.453,-0.57 -2.946,-1.06 -4.453,-1.45 -5.106,-1.38 -10.414,-2.07 -15.77,-2.07 0,0 0,0 -0.008,0" /><path
         id="path3750"
         style="fill:#7b6440;fill-opacity:1;fill-rule:nonzero;stroke:none"
         d="m 2406.02,1218.01 c -36.03,0 -81.31,23.83 -91.63,62.34 -3.8,14.18 -5.33,28.63 -4.79,45.36 -0.08,2.81 -0.07,5.64 -0.02,8.47 -0.34,10.77 0.37,20.78 1.03,28.38 0.07,0.7 0.15,1.39 0.24,2.08 6.68,48.59 31.91,107.09 69.22,160.55 49.96,70.63 111.87,112.77 151.13,123.3 5.04,1.35 10.39,2 16.36,2 22.46,0 55.93,-9.07 74.63,-32.56 8.98,18.94 18.43,36.25 27.24,48.19 10.29,15.42 25.58,20.92 31.95,22.61 5.15,1.38 10.7,2.09 16.42,2.09 21.6,0 47.73,-10.87 66.55,-28.09 27.72,33.22 54.44,59.2 73.38,64.27 4.64,1.25 9.47,1.88 14.38,1.88 27.3,0 52.42,-19.35 66.48,-37.58 34.96,53.06 98.46,98.25 146.06,111.01 5.06,1.35 10.25,2.04 15.45,2.04 41.93,0 66.57,-39.79 74.71,-70.37 10.45,5.11 18.26,8.23 22.76,9.43 3.58,0.96 8.13,1.55 11.85,1.55 16.3,0 31,-8.19 39.39,-20.99 2.66,-3.86 4.7,-8.19 5.98,-12.86 1.59,-5.82 2,-11.12 1.52,-15.93 0.54,-4.13 0.51,-7.92 -0.05,-11.45 3.65,-25.94 -15.45,-38.45 -45.59,-58.19 -25.45,-16.67 -67.82,-44.43 -104.46,-73.5 2.1,-5.06 3.6,-10.49 4.31,-16.27 0.11,-0.99 0.19,-1.97 0.25,-2.97 0.14,-2.75 0.09,-5.34 -0.05,-7.75 0.02,-0.25 0.03,-0.51 0.05,-0.76 0.17,-3.31 0.12,-6.64 -0.13,-10.04 0.05,-0.6 0.1,-1.2 0.13,-1.8 3.64,-73.63 -96.83,-146.22 -152.75,-161.21 -5.77,-1.54 -11.61,-2.32 -17.38,-2.32 -11.4,0 -30.18,3.13 -47.3,20.27 -30.88,-35.58 -47.83,-40.12 -57.67,-42.75 -4.65,-1.25 -9.51,-1.88 -14.44,-1.88 -14.82,0 -29.81,5.49 -45.82,16.78 -10.52,7.3 -29.51,23.35 -35.81,46.87 -1.39,5.22 -2.27,10.92 -2.64,17.22 -6.03,-10.09 -11.41,-19.6 -15.94,-28.18 -0.25,-0.49 -0.52,-0.98 -0.8,-1.46 -4.91,-8.5 -9.35,-18.48 -13.81,-28.86 0.59,-1.91 1.04,-3.88 1.36,-5.9 0.58,-3.67 0.68,-7.33 0.31,-10.9 0.35,-3.44 0.27,-6.85 -0.2,-10.17 2.48,-17.64 -6.31,-34.98 -22.06,-43.39 -9.98,-5.34 -20.75,-8.05 -32.03,-8.05 -34.78,0 -62.09,25.19 -76.15,48.91 -47.37,-54.38 -90.41,-85.81 -131.74,-96.88 -6.28,-1.69 -12.97,-2.54 -19.88,-2.54" /><path
         id="path3752"
         style="fill:#7b6440;fill-opacity:1;fill-rule:nonzero;stroke:none"
         d="m 860.863,802.48 c -44.605,0 -83.734,29.731 -95.156,72.309 -4.523,16.867 -6.516,34.836 -5.93,53.449 -0.07,2.891 -0.066,5.797 -0.015,8.711 -3.532,130.391 123.656,270.021 231.883,299.021 12.555,3.37 24.485,5.07 35.445,5.07 13.08,0 24.74,-2.29 35.56,-7.01 21.51,-7.96 29.15,-26.73 29.03,-41.03 -0.01,-0.82 -0.06,-2.14 -0.24,-3.82 0,-0.01 0,-0.02 0,-0.03 4.27,10.23 8.53,19.86 12.73,28.78 6.65,14.61 14.57,28.77 22.2,39.58 10.23,15.81 25.78,21.46 32.22,23.19 5.29,1.42 10.83,2.13 16.54,2.13 19.77,0 43.32,-9.11 61.61,-23.85 13.2,16.41 25.45,29.47 35.57,36.73 7.78,5.95 15.33,7.97 18.36,8.78 4.39,1.18 8.99,1.78 13.67,1.78 23.33,0 46.26,-15.39 60.9,-30.98 27.52,40.31 55.33,71.99 77.63,77.96 4.48,1.21 9.16,1.81 13.9,1.81 32.7,0 63.42,-29.6 73.89,-49.6 2,-3.81 3.55,-7.7 4.67,-11.6 52.45,70.32 120.97,120.21 177.08,135.23 11.56,3.11 23.8,4.74 35.39,4.74 43.87,0 77.43,-23.55 87.59,-61.47 0.79,-2.91 1.4,-5.9 1.84,-8.96 13.28,34.94 31.9,75.5 47.91,97.26 0.73,0.99 1.5,1.95 2.31,2.88 8.49,9.65 18.1,15.83 29.39,18.89 5.22,1.39 10.64,2.09 16.22,2.09 18.1,0 39.98,-8.22 57.78,-21.48 28.19,34.12 48.17,51.21 68.64,58.85 5.28,1.95 10.74,2.91 16.38,2.91 15.21,0 34.93,-8.88 50.6,-20.04 17.41,53.65 37.13,107.81 58.92,161.81 23.75,59.18 45.39,102.45 64.27,128.55 0.25,0.35 0.51,0.7 0.77,1.04 14.26,18.48 29.44,29.97 45.15,34.16 8.69,2.33 17.78,3.52 26.98,3.52 38.03,0 91.08,-23.79 91.08,-62.54 0,-1.25 -0.06,-2.48 -0.17,-3.71 0.4,-3.8 0.25,-7.35 -0.2,-10.52 0.92,-6.55 0.14,-12.39 -1,-16.85 -4.65,-18.18 -20.57,-31.16 -39.28,-32.42 -10.48,-13.31 -27.65,-48.61 -33.77,-61.17 -2.13,-4.53 -9.21,-20.98 -16.13,-37.26 4.2,1 8.56,1.5 12.98,1.5 35.89,0 73.22,-35.4 81.39,-65.85 1.96,-7.33 2.75,-15.27 2.36,-23.67 0.2,-3.57 0.17,-7.25 -0.1,-10.99 3.14,-47.84 -37.72,-100.66 -63.13,-128.59 -22.32,-24.55 -47.14,-46.02 -71.84,-62.62 40.37,-31.82 91.5,-57.58 134.44,-57.58 8.18,0 15.89,0.96 22.91,2.84 15.64,4.18 28.69,13.07 39.89,27.16 8.72,12.07 22.88,19.39 37.99,19.39 15.74,0 30.36,-8.37 38.15,-21.84 4.65,-8.05 6.53,-17.12 5.66,-26.12 0.33,-3.36 0.27,-6.78 -0.19,-10.16 1.33,-9.73 -0.65,-19.88 -5.92,-29 -0.18,-0.31 -0.36,-0.62 -0.54,-0.92 -25.51,-41.8 -62.72,-70.25 -107.61,-82.28 -16.44,-4.41 -34.03,-6.64 -52.28,-6.64 -65.51,0 -131.25,27.69 -184.53,62.38 1.3,-14.22 -4.62,-28.5 -16.38,-37.58 -11.13,-8.58 -24.56,-13.11 -38.83,-13.11 -6.92,0 -14,1.04 -21.63,3.18 -18.65,4.99 -41.18,21.91 -51.46,33.51 -2.08,2.34 -3.88,4.9 -5.4,7.63 -6.57,11.9 -8.95,27.81 -9.5,42.13 -4.77,-2.13 -9.5,-3.82 -14.2,-5.08 -4.54,-1.22 -9.33,-1.83 -14.22,-1.83 -20.62,0 -48,12.97 -64.83,31.18 -8.48,-13.91 -16.95,-29.33 -26.26,-47.45 -11.9,-22.52 -23.06,-49.67 -28.99,-69.73 0.25,-1 0.46,-2.01 0.63,-3.03 0.64,-3.82 0.75,-7.64 0.38,-11.36 0.34,-3.42 0.26,-6.82 -0.2,-10.13 2.46,-17.5 -6.18,-34.76 -21.77,-43.25 -9.98,-5.44 -20.79,-8.19 -32.14,-8.19 -26.42,0 -48.3,14.69 -62.95,31.56 -33.13,-43.15 -54.05,-55.15 -71.41,-59.8 -4.75,-1.27 -9.72,-1.92 -14.77,-1.92 -7.82,0 -14.6,1.52 -19.64,2.84 -17.12,4.52 -36.99,16.15 -49.8,33.19 -37.24,-47.65 -65.87,-74.324 -85.53,-79.593 -3.98,-1.063 -8.06,-1.582 -12.5,-1.582 -6.5,0 -12.27,1.109 -13.88,1.445 -12.9,2.645 -28.32,10.95 -41.88,22.3 -33.56,-43.534 -54.06,-54.937 -70.99,-59.472 -4.96,-1.328 -10.14,-1.996 -15.43,-1.996 -28.58,0 -61.56,21.289 -76.14,46.895 -18.44,-37.578 -29.44,-55.571 -52.48,-61.742 -4.25,-1.145 -8.73,-1.719 -13.31,-1.719 -25.99,0 -62.54,21.273 -75.84,49.269 -2.87,-5.558 -5.76,-11.215 -8.66,-16.976 -6.29,-12.442 -10.99,-22.207 -14.04,-29.16 0.19,-0.868 0.36,-1.746 0.5,-2.633 0.59,-3.696 0.68,-7.383 0.32,-10.981 0.34,-3.418 0.26,-6.812 -0.2,-10.121 2.48,-17.636 -6.31,-34.992 -22.06,-43.414 -10.14,-5.422 -21.13,-8.168 -32.69,-8.168 -35.51,0 -63.42,25.508 -76.52,47.352 -1.75,2.922 -3.71,6.773 -5.28,12.215 C 989.254,861.871 930.672,814.84 881.152,804.531 c -6.949,-1.383 -13.66,-2.051 -20.285,-2.051 0,0 0,0 -0.004,0" /><path
         id="path3754"
         style="fill:#7b6440;fill-opacity:1;fill-rule:nonzero;stroke:none"
         d="m 1488.7,602.352 c -25.65,0 -50.37,18.558 -58.78,44.136 -2.91,9.492 -3.94,19.442 -3.32,30.981 -0.19,3.25 -0.21,6.64 -0.07,10.121 -0.9,28.601 11.42,87.93 46.37,109.34 1.85,1.129 3.77,2.121 5.76,2.949 8.23,3.453 17.12,5.211 26.42,5.211 18.27,0 37.6,-6.731 57.45,-20.008 8.02,-5.062 35.13,-24.48 32.28,-53.953 0.37,-3.66 0.24,-7.078 -0.19,-10.207 0.69,-4.91 0.56,-10.16 -0.71,-15.703 -3.51,-15.34 -15.56,-27.887 -30.76,-31.981 -0.7,-0.187 -1.39,-0.359 -2.05,-0.5 -7.71,-9.816 -20.07,-28.797 -22.81,-35.527 -0.23,-0.621 -0.4,-1.039 -0.65,-1.652 -8.65,-20.477 -27.4,-33.207 -48.94,-33.207 v 0" /><path
         id="path3756"
         style="fill:#7b6440;fill-opacity:1;fill-rule:nonzero;stroke:none"
         d="m 1722.58,533.949 c 4.93,-0.39 9.76,-0.949 14.47,-1.687 5.39,11.078 12.2,22.847 20.03,34.988 -11.15,-10.359 -22.81,-21.602 -34.5,-33.301 z M 1404.22,286.73 c -29.54,0.692 -68.5,24.008 -77.17,56.352 -2.21,8.227 -3.01,17.52 -2.5,29 -0.16,3.199 -0.18,6.527 -0.07,10.09 -1.95,62.957 54.31,223.617 91.07,275.117 7.65,11.883 19.18,20.34 32.74,23.961 5.04,1.352 10.44,2.051 16,2.051 24.04,0 54.7,-14.289 73.9,-35.653 -0.49,5.793 -0.6,11.614 -0.32,17.434 -0.19,3.77 -0.21,7.328 -0.09,10.77 -1,39.82 17.32,85.48 50.43,94.359 4.6,1.23 9.45,1.848 14.45,1.848 28.62,0 65,-20.411 73.83,-53.387 1.06,-3.981 1.5,-7.813 1.55,-11.402 22.05,12.05 40.81,25.39 46.3,33.601 0.06,0.199 0.13,0.399 0.2,0.598 6.15,18.203 23.39,30.441 42.9,30.441 13.3,0 26.59,-6.012 38.11,-13.66 7.74,17.719 21.6,33.59 39.28,43.238 6.37,3.481 13.38,5.203 20.36,5.203 8.5,0 16.95,-2.543 24.2,-7.562 6.74,-4.66 11.85,-11.059 14.94,-18.32 1.97,-0.219 4.32,-0.368 7.05,-0.368 8.78,0 18.24,1.559 26.62,4.399 24.43,8.332 47.49,29.558 53.32,36.941 7.23,15.852 23.26,26.223 41.2,26.223 36.8,0 72.24,-45.645 72.59,-46.106 13.05,-17.316 15.73,-32.578 14.7,-44.168 0.28,-3.55 0.18,-6.82 -0.15,-9.769 0.92,-7.961 -0.11,-14.731 -1.58,-19.879 -3.56,-12.473 -12.62,-22.633 -24.6,-27.602 -17.22,-7.128 -64.65,-48.242 -112.13,-95.992 45.39,-2.437 82.41,-18.547 107.6,-46.957 0.55,-0.621 1.08,-1.25 1.59,-1.902 8.22,-10.43 11.92,-22.91 10.79,-34.91 0.32,-3.387 0.26,-6.789 -0.18,-10.149 1.11,-8.609 -0.19,-17.332 -4.03,-25.25 -7.37,-15.179 -22.44,-24.609 -39.35,-24.609 -9.74,0 -19.23,3.187 -27.43,9.23 -1.79,1.309 -3.46,2.75 -5.02,4.321 -4.91,4.957 -12.51,10.019 -31.61,10.019 -14.15,0 -32.23,-2.922 -53.73,-8.672 -37.63,-10.089 -62.7,-36.98 -79.3,-54.777 -11.45,-12.281 -20.5,-21.992 -35.36,-25.953 -4.02,-1.078 -8.29,-1.641 -12.64,-1.641 -0.83,0 -1.67,0.024 -2.5,0.063 -5.18,-2.16 -10.76,-3.34 -16.41,-3.34 -11.64,0 -22.83,4.641 -31.52,13.07 -5.16,5.188 -12.91,10.481 -32.38,10.481 -14.33,0 -32.58,-2.942 -54.24,-8.742 -38.01,-10.188 -66.35,-39.29 -83.28,-56.68 -11.97,-12.281 -20.61,-21.16 -34.72,-24.949 -4.24,-1.141 -8.66,-1.711 -13.15,-1.711 -20.75,0 -40.72,12.34 -53.7,24.769 -23.69,-30.347 -43.93,-48.609 -63.55,-55.668 -1.12,-0.402 -2.26,-0.761 -3.41,-1.07 -3.97,-1.051 -9.86,-2.629 -18.02,-2.742 -0.19,0 -0.38,0 -0.57,0 -0.33,0 -0.67,0 -1.01,0.011" /><path
         id="path3758"
         style="fill:#7b6440;fill-opacity:1;fill-rule:nonzero;stroke:none"
         d="m 2097.72,472.82 c -36.05,0 -81.33,23.828 -91.65,62.34 -3.8,14.18 -5.33,28.629 -4.79,45.36 -0.08,2.82 -0.07,5.64 -0.02,8.468 -0.34,10.762 0.37,20.782 1.03,28.383 0.07,0.688 0.15,1.391 0.24,2.078 6.68,48.59 31.91,107.102 69.22,160.539 49.96,70.645 111.87,112.793 151.13,123.317 5.03,1.347 10.38,2 16.36,2 21.78,0 53.92,-8.528 72.89,-30.473 8.43,17.531 17.22,33.41 25.33,44.453 0.75,1.012 1.53,1.981 2.36,2.926 8.53,9.676 18.18,15.852 29.5,18.875 5.08,1.363 10.5,2.055 16.08,2.055 18.09,0 39.97,-8.211 57.78,-21.477 28.2,34.133 48.18,51.238 68.64,58.859 5.31,1.95 10.75,2.903 16.37,2.903 18.97,0 44.93,-13.785 61.33,-28.61 4.18,7.571 8.45,14.551 12.72,20.508 7.68,11.836 19.4,20.332 33.32,24.063 5,1.343 10.27,2.013 15.71,2.013 28.11,0 65.19,-19.345 82.66,-46.658 45.38,60.678 106.72,114.098 173.89,132.088 11.56,3.1 23.8,4.74 35.39,4.74 43.88,0 77.45,-23.55 87.61,-61.47 2.11,-7.83 2.98,-16.25 2.59,-25.03 l 4.56,7.34 c 8.41,13.91 22.88,22.18 38.92,22.18 16.31,0 31.58,-8.88 39.84,-23.18 4.79,-8.29 6.77,-17.73 5.94,-26.926 0.35,-3.48 0.29,-6.98 -0.18,-10.429 1.17,-9.121 -0.42,-18.496 -4.81,-26.754 -123.3,-237 -169.16,-249.289 -188.74,-254.539 -4.7,-1.262 -9.68,-1.91 -14.75,-1.91 -7.82,0 -14.61,1.519 -19.65,2.839 -17.1,4.52 -36.98,16.149 -49.79,33.188 -37.23,-47.649 -65.87,-74.328 -85.53,-79.59 -3.97,-1.07 -8.05,-1.59 -12.48,-1.59 -6.32,0 -12.03,1.071 -13.64,1.391 -14.69,3 -32.51,13.211 -47.21,26.851 -34.36,-46.293 -55.28,-59.543 -71.47,-65.312 -1.07,-0.391 -2.16,-0.731 -3.26,-1.02 -3.55,-0.949 -8.89,-2.379 -16.72,-2.859 -0.86,-0.051 -1.72,-0.078 -2.57,-0.078 -0.58,0 -1.16,0.008 -1.73,0.039 -25.06,1.019 -66.46,21.73 -75.78,56.488 -1.99,7.43 -2.85,15.723 -2.63,25.699 -1.37,-0.437 -2.74,-0.839 -4.09,-1.207 -4.54,-1.222 -9.33,-1.832 -14.21,-1.832 -20.63,0 -48.01,12.973 -64.83,31.18 -8.48,-13.918 -16.96,-29.34 -26.28,-47.469 -11.88,-22.511 -23.03,-49.648 -28.97,-69.711 0.25,-1.019 0.47,-2.05 0.64,-3.097 0.64,-3.793 0.75,-7.582 0.37,-11.282 0.35,-3.429 0.27,-6.839 -0.2,-10.16 2.46,-17.5 -6.19,-34.761 -21.78,-43.25 -9.97,-5.422 -20.78,-8.179 -32.12,-8.179 -34.25,0 -60.88,24.679 -74.02,46.8 -46.13,-52.191 -88.17,-82.492 -128.66,-93.339 -6.29,-1.68 -12.97,-2.532 -19.86,-2.532" /><path
         id="path3760"
         style="fill:#7b6440;fill-opacity:1;fill-rule:nonzero;stroke:none"
         d="m 447.227,1236.27 c 7.535,-0.52 15,-3.06 21.546,-7.68 1.446,-1.02 2.801,-2.12 4.086,-3.29 16.079,16.63 33.371,37.36 46.125,57.33 -21.711,-9.07 -46.777,-25.84 -71.757,-46.36 z M 319.926,1087.71 c 13.258,-4.36 38.265,-6.1 62.738,-6.85 -0.789,2.02 -1.453,4.04 -1.996,6.06 -2.563,9.56 -3.551,19.91 -2.93,30.8 -0.191,3.31 -0.218,6.66 -0.093,10.01 -0.75,18.27 3.382,36.25 9.535,51.95 -31.02,-33.18 -56.453,-67.3 -67.254,-91.97 z M 409.828,913.258 C 412.199,896.48 404.324,879.43 389.105,870.574 272.941,802.961 177.816,686.25 140.977,615.988 c 63.992,18.684 157.601,76.321 240.382,148.242 86.911,75.504 133.805,141.489 144.602,177.981 -6.043,5.519 -27.77,17.598 -102.246,18.129 l -5.863,0.019 c -7.551,0 -15.141,-0.082 -22.719,-0.195 5.168,-4.355 9.351,-9.992 12.027,-16.633 2.653,-6.582 3.543,-13.48 2.867,-20.144 0.344,-3.399 0.27,-6.801 -0.199,-10.129 z M 117.699,455.27 c -59.7224,0 -101.4021,27.742 -114.35916,76.101 -2.664059,9.918 -3.726559,20.711 -3.175777,32.109 -0.2148443,3.95 -0.2187505,8.008 -0.015625,12.122 C -2.33594,698.172 220.016,909.016 332.051,959.738 c -50.188,0.942 -128.477,9.102 -147.403,79.722 -3.582,13.34 -5.07,27.5 -4.445,42.13 -0.105,2.97 -0.109,5.96 -0.031,8.95 -4.703,135.19 190.308,281.68 294.668,313.51 26.543,8.05 49.168,11.96 69.234,11.96 53.149,0 91.012,-29.05 103.891,-79.72 3.015,-12.09 4.328,-24.97 3.949,-38.45 0.094,-3.29 0.078,-6.6 -0.039,-9.95 3.148,-79.44 -57.312,-168.71 -123.594,-214.77 55.922,-10.47 109.465,-36.83 127.41,-103.819 3.645,-13.594 5.258,-28.371 4.801,-43.934 0.074,-3.297 0.043,-6.609 -0.082,-9.949 5.977,-173.828 -288.183,-400.246 -477.683,-451.02 -15.536,-4.168 -39.43,-9.128 -65.024,-9.128 -0.004,0 -0.004,0 -0.004,0" /><path
         id="path3762"
         style="fill:#7b6440;fill-opacity:1;fill-rule:nonzero;stroke:none"
         d="m 463.34,365.77 c -39.149,0 -69.863,23.859 -80.156,62.261 -3.02,11.25 -4.219,23.43 -3.672,37.149 -0.121,3.179 -0.137,6.461 -0.035,9.949 -0.149,4.73 -0.086,9.242 0.183,13.75 5.867,101.793 102.258,248.152 246.563,375.211 3.207,11.375 6.144,22.789 9.211,34.683 2.785,10.793 5.566,21.594 8.57,32.45 23.23,86.837 40.672,150.877 52.648,181.117 0.188,0.46 0.379,0.93 0.578,1.38 4.2,9.6 16.856,38.52 45.458,48.83 6.476,2.47 13.472,3.71 20.824,3.71 32.926,0 80.543,-29.26 90.285,-65.59 1.422,-5.35 1.851,-10.75 1.34,-15.99 0.32,-3.4 0.254,-6.78 -0.196,-10.08 1.551,-11.57 -1.429,-23.03 -8.492,-32.21 -5.644,-7.34 -13.699,-12.64 -22.562,-15.16 -4.262,-10.24 -10.375,-29.578 -17.645,-55.597 13.375,-4.278 24.055,-14.613 28.332,-28.336 1.61,-5.156 2.348,-11.063 1.742,-17.199 0.321,-3.254 0.282,-6.657 -0.187,-10.118 1.918,-14.093 -2.707,-31.394 -20.969,-44.011 -14.805,-10.75 -29.496,-21.946 -44.211,-33.711 C 722.402,653.039 654.539,457.23 523.781,382.559 c -9.148,-5.348 -19.621,-9.61 -31.679,-12.84 -9.778,-2.617 -19.461,-3.949 -28.758,-3.949 0,0 0,0 -0.004,0" /><path
         id="path3764"
         style="fill:#7b6440;fill-opacity:1;fill-rule:nonzero;stroke:none"
         d="m 1237.2,717.609 c -20.47,-22.828 -62.08,-93.07 -112.12,-199.179 131.27,105.652 234.59,223.711 246.56,288.672 -8.34,26.089 -56.77,28.937 -77.43,28.937 -10.97,0 -22.74,-0.723 -35.11,-2.137 12.43,-10.371 22.54,-23.433 28.94,-38.273 2.94,-6.828 3.97,-14.078 3.25,-21.098 0.34,-3.402 0.27,-6.793 -0.19,-10.133 2.11,-14.968 -3.9,-30.316 -16.41,-39.808 -7.61,-5.77 -16.66,-8.649 -25.7,-8.649 -3.97,0 -7.94,0.559 -11.79,1.668 z M 819.828,407.648 c 0.332,-3.308 0.277,-6.41 -0.098,-9.296 28.973,35.808 65.665,64.679 82.2,69.097 1.226,0.352 5.925,1.633 12.043,1.633 7.382,0 14.668,-1.844 21.191,-5.352 38.774,99.418 97.046,233.258 153.776,316.571 C 927.949,697.191 784.496,536.02 759.652,456.68 c 2.703,-0.918 6.071,-1.641 9.168,-1.641 2.645,0.492 5.289,0.731 7.903,0.731 19.164,0 36.816,-12.86 41.722,-31.938 1.539,-5.98 1.907,-11.352 1.383,-16.184 z M 926.723,0 c -35.172,0 -63.848,25.4609 -74.84,66.4297 -3.594,13.4023 -5.153,29.1016 -4.754,47.9803 -0.094,3.602 -0.098,7.352 -0.027,11.192 -0.383,25.039 3.238,56.23 10.8,93.136 -58.468,4.121 -73.464,42.614 -76.75,54.883 -1.929,7.199 -2.55,14.777 -1.867,23 -0.293,3.641 -0.297,7.399 -0.004,11.328 -0.5,14.172 3.735,29.461 10.957,44.77 -5.054,-2.258 -9.621,-3.68 -12.582,-4.481 -19.523,-5.218 -36.636,-7.758 -52.343,-7.758 -51.438,0 -88.672,28.879 -102.168,79.239 -2.793,10.402 -3.887,21.703 -3.321,34.453 -0.172,3.539 -0.191,7.187 -0.058,10.918 -1.989,68.449 53.093,165.558 144.324,254.148 106.773,103.692 250.15,183.453 403.71,224.602 17.03,4.566 62.67,15.18 118.54,15.18 111.96,0 185.19,-43.149 206.18,-121.493 4.16,-15.515 6.09,-32.328 5.75,-49.988 0.07,-3.449 0.02,-6.918 -0.09,-10.398 3.04,-91.059 -59.06,-194.993 -184.61,-308.93 -102.4,-92.93 -219.36,-166.379 -295.39,-204.902 -25.461,-68.969 -42.653,-125.75 -48.617,-160.411 6.296,-4.6675 11.335,-11.1089 14.312,-18.7964 2.48,-6.4024 3.313,-13.1211 2.652,-19.6133 0.34,-3.3985 0.27,-6.7969 -0.195,-10.1289 C 988.461,39.25 982.309,23.8086 969.68,14.3711 962.711,9.16016 953.438,4.67969 944.879,2.41016 938.945,0.820313 932.813,0 926.723,0" /><path
         id="path3766"
         style="fill:#7b6440;fill-opacity:1;fill-rule:nonzero;stroke:none"
         d="m 2676,920.484 c -25.64,0 -50.37,18.567 -58.78,44.137 -2.92,9.524 -3.94,19.508 -3.32,31.074 -0.18,3.2 -0.2,6.545 -0.07,9.995 -0.97,29.85 12.59,88.44 45.31,108.96 2.04,1.28 4.17,2.38 6.39,3.29 8.37,3.45 17.37,5.2 26.75,5.2 18.68,0 38.3,-6.88 58.32,-20.44 7.68,-4.98 33.89,-24.48 31.06,-53.39 0.37,-3.66 0.24,-7.09 -0.19,-10.21 0.83,-6.1 0.28,-11.59 -0.83,-16.19 -3.64,-15.19 -15.89,-27.726 -30.98,-31.746 -0.52,-0.137 -1.03,-0.262 -1.54,-0.383 -7.49,-9.488 -19.75,-28.492 -22.51,-35.383 -0.23,-0.609 -0.41,-1.085 -0.66,-1.683 -8.65,-20.5 -27.4,-33.231 -48.94,-33.231 -0.01,0 -0.01,0 -0.01,0" /><path
         id="path3768"
         style="fill:#231f20;fill-opacity:1;fill-rule:nonzero;stroke:none"
         d="m 147.316,573.609 c 162.969,43.661 449.297,295.059 421.946,397.168 -11.242,41.923 -74.074,51.903 -145.235,52.413 -87.121,0.57 -182.351,-11.89 -198.3,47.61 -30.43,113.6 163.711,262.74 261.523,292.58 60.996,18.51 106.23,14.69 119.512,-37.56 20.207,-80.83 -74.082,-199.59 -145.762,-218.8 -13.527,-3.63 -35.266,-3.65 -39.246,11.23 -7.434,27.72 11.148,63.86 22.5,75.61 -7.063,-14.22 -7.316,-29.51 -4.777,-38.97 1.093,-4.06 5.144,-2.98 9.199,-1.89 27.734,7.43 139.297,118.5 131.601,182.39 -2.422,22.55 -22.312,23.74 -48.007,16.85 -7.43,-1.99 -16.047,-5.03 -24.661,-8.05 -84.011,-32.66 -252.929,-197.51 -234.265,-267.16 10.508,-39.22 79.961,-38.73 153.332,-39.37 82.027,-0.48 167.847,-4.3 187.957,-79.363 C 654.32,810.199 356.332,575.262 171.73,525.801 127.094,513.84 58.7344,509.281 44.418,562.711 17.6016,662.789 279.953,906.305 367.727,927.652 201.586,830.949 69.8672,635.48 83.2656,585.441 90.3359,559.07 125.68,567.809 147.316,573.609" /><path
         id="path3770"
         style="fill:#231f20;fill-opacity:1;fill-rule:nonzero;stroke:none"
         d="m 830.094,1238.53 c 7.898,-5.14 14.676,-14.19 12.644,-14.73 -2.031,-0.54 -8.164,0.71 -14.687,-4.66 -10.235,-7.82 -33.914,-43.88 -38.946,-57.55 -6.21,-14.71 -24.218,-4.31 -28.144,7.68 -5.938,19.43 7.977,70.27 24.785,80.57 14.336,6.02 32.832,-3.52 44.348,-11.31 z M 657.711,816.191 C 552.023,718.289 480.043,616.371 455.578,515.602 c -3.308,-14.661 -3.484,-24.852 -1.668,-31.614 2.715,-10.148 9.707,-11.886 18.496,-9.539 9.473,2.539 19.871,9.68 29.246,17.981 67.707,63.808 117.649,193.879 156.059,323.761 z m 79.441,82.164 c 13.426,9.395 26.856,18.79 41.133,27.688 9.922,6.289 21.278,7.156 12.715,1.238 C 770.375,912.32 751.762,897.918 733.336,882.84 688.539,709.211 624.652,509.449 502.711,439.809 c -6.898,-4.02 -14.152,-6.688 -21.594,-8.68 -25.019,-6.707 -49.062,-0.828 -56.855,28.242 -1.992,7.438 -2.813,15.918 -2.149,26.969 5.391,93.492 107.227,238.191 241.465,353.89 8.047,26.79 14.055,53.04 21.414,79.661 21.731,81.199 39.961,148.419 51.203,176.789 3.594,8.21 10.664,22.43 21.297,26 15.012,6.2 50.715,-16.12 55.246,-33.02 0.723,-2.72 -2.226,0.12 -7.804,-0.65 -6.266,-0.96 -12.938,-8.55 -18.829,-21.72 -10.476,-23.09 -26.777,-84.001 -39.656,-136.013 -3.547,-11.093 -5.742,-21.828 -9.297,-32.922" /><path
         id="path3772"
         style="fill:#231f20;fill-opacity:1;fill-rule:nonzero;stroke:none"
         d="m 1027.99,1243.73 c -12.67,-4.12 -29.197,8.84 -32.771,19.47 -5.379,17.4 11.171,53.01 28.881,59.93 11.99,3.94 41.14,-2.02 48.95,-12.25 -20.11,-6.11 -38.49,-64.67 -45.06,-67.15 z m -83.76,-28.25 c -13.523,-3.62 -29.375,9.53 -33.621,19.98 -5.39,17.41 11.172,53 29.551,60.1 11.992,3.94 40.77,-0.67 48.945,-12.24 -20.781,-6.3 -38.964,-65.53 -44.875,-67.84 z m 84.49,-25.92 C 906.332,1156.77 826.059,891.012 868.273,884.93 c 42.043,-5.41 109.747,128.7 136.577,209.81 -5.01,5.18 -17.209,23.65 -16.323,31.15 0.227,7.3 15.073,33.02 23.683,36.06 6.58,2.48 15.47,-0.94 17.36,-2.6 18.47,-17.53 38.87,-28.73 65.38,-19.45 44.21,16.2 62.16,49.28 69.78,50.6 -0.84,-10.39 -21.91,-39.95 -52.15,-59.63 -13.6,-8.73 -27.44,-13.89 -38.26,-16.79 -10.14,-2.72 -17.27,-3.17 -21.02,-2.72 5.84,-94.84 -108.042,-229.723 -180.808,-244.868 -31.64,-6.308 -58.816,13.953 -65.711,39.649 -29.531,110.219 89.024,260.129 195.879,288.759 25.69,6.89 38.51,2.34 44.33,-0.45 3.91,-1.11 1.89,-1.66 -0.81,-2.38 -6.95,-1.14 -12.72,-1.24 -17.46,-2.51" /><path
         id="path3774"
         style="fill:#231f20;fill-opacity:1;fill-rule:nonzero;stroke:none"
         d="m 1368.08,1042.77 c -10.32,38.53 33.12,171.22 59.59,213.11 -100.24,-118.19 -139.23,-254.02 -158.15,-259.087 -9.48,-2.539 -36.92,13.297 -40.54,26.827 -6.89,25.69 19.09,137.02 53.35,190.4 -57.25,-59.54 -103.11,-139.96 -137.61,-208.63 -8.06,-15.929 -13.13,-26.722 -16.24,-34.066 -12.96,-27.39 -12.71,-41.824 -1.3,-43.836 -19.01,-10.168 -42.22,6.082 -52.7,23.563 -2.62,4.375 -4.81,23.359 4.44,59.169 14.4,62.57 38.3,135.66 63.72,189.57 6.39,14.03 13.31,26.04 19.13,34.11 1.97,3.44 5.85,5.2 7.88,5.74 16.91,4.53 49.67,-14.96 54.19,-31.86 0.73,-2.71 -2.88,-0.05 -8.47,-0.82 -4.92,-0.6 -12.57,-9.89 -18.46,-23.07 -20.2,-40.93 -55.97,-145.46 -64.46,-175.99 27.88,69.07 138.61,240.06 165.38,253.77 1.17,1.03 2.53,1.39 3.87,1.76 13.53,3.63 44.91,-24.2 39.95,-32.78 -24.69,-45.76 -59.47,-159.44 -53.13,-183.1 42,97.5 136.97,257.02 165.37,264.63 14.88,3.99 46.97,-26.55 40.18,-36.34 -13.28,-18.06 -79.46,-193.06 -71.49,-222.82 41.25,21.93 114.42,143.73 146.64,196.58 3.83,4.65 8.66,0.14 7.19,-2.44 -41.62,-80 -122.94,-222.83 -162.84,-233.52 -15.55,-4.16 -42.04,16.28 -45.49,29.13" /><path
         id="path3776"
         style="fill:#231f20;fill-opacity:1;fill-rule:nonzero;stroke:none"
         d="m 1697.49,1233.23 c -14.85,-25.73 -116.28,-174.67 -144.67,-182.28 -1.35,-0.36 -5.1,0.08 -6.63,0.41 -13.8,2.82 -38.28,23.8 -41.9,37.33 -19.75,73.71 94.7,265.99 219.13,299.33 25.7,6.89 62.39,5.13 70.91,-26.66 3.09,-11.49 0.08,-24.61 -4.33,-35.22 -1.17,-1.03 -2.7,-0.72 -2.2,0.14 1.74,6.99 3.63,16.19 0.9,26.33 -5.42,20.29 -20.99,26.99 -40.91,20.2 -38.68,-12.53 -80.43,-54.16 -114.43,-103.13 -49.56,-71.99 -77.44,-170.78 -70.46,-172.54 1.54,-0.31 2.89,0.06 4.74,1.27 20.32,13.42 96.69,107.09 123.89,146.27 9.26,14.08 41.8,68.45 56.18,82.45 11.71,10.39 44.67,-20.65 44.13,-29.49 -5.2,5.86 -46.3,-84.16 -54.99,-132.87 -1.52,-10.56 -2.05,-19.39 -0.6,-24.8 39.34,23.59 111.21,142.14 142.63,192.6 2.48,4.28 7.31,-0.22 5.82,-2.8 -41.62,-80.01 -121.58,-222.47 -162.15,-233.34 -3.39,-0.91 -7.13,-0.46 -12.59,0.98 -10.91,2.88 -27.56,13.63 -30.83,25.8 -1.81,6.77 -1.27,15.61 -1.29,26.47 1.4,27.2 11.33,63.2 19.65,83.55" /><path
         id="path3778"
         style="fill:#231f20;fill-opacity:1;fill-rule:nonzero;stroke:none"
         d="m 1919.4,1435.46 c 3.33,3.79 5.86,5.19 8.56,5.92 16.22,4.35 48.99,-15.13 53.52,-32.05 0.72,-2.7 -2.21,0.14 -7.79,-0.63 -10.33,-2.04 -26.93,-34.76 -39.98,-67.24 -11.73,-29.24 -26.88,-67.36 -34.37,-96.19 23.33,56.26 75.73,131.18 122.66,188.69 21.29,26.01 38.51,42.93 52.34,48.09 7.27,2.67 42.77,-18.98 39.49,-25.66 -10.71,-19.53 -53.61,-83.93 -61.79,-142.66 31.73,11.4 70.23,54.33 102.19,102.76 0.5,0.86 4.38,2.63 5.42,1.46 -7.83,-19.5 -68.68,-116.98 -115.34,-129.49 -12.17,-3.26 -38.8,14.97 -40.98,23.09 -5.06,18.93 6.06,63.95 18.21,88.95 -52.42,-53.19 -76.97,-88.75 -109.35,-151.78 -24.53,-46.44 -49.16,-116.82 -32.47,-119.59 -18.34,-9.99 -40.18,6.62 -49.99,24.3 -2.99,5.72 -3.05,19.47 0.9,37.2 6.58,43.07 24.51,97.88 41.22,143.67 14.42,40.83 34.27,83.11 47.55,101.16" /><path
         id="path3780"
         style="fill:#231f20;fill-opacity:1;fill-rule:nonzero;stroke:none"
         d="m 2186.47,1366.42 c 3.16,-6.39 5.79,-10.77 7.67,-12.44 57.35,24.06 111.73,132.13 121.16,178.15 -43.59,-24.01 -124.61,-154.43 -128.83,-165.71 z m -44.69,42.38 c 25.64,90.94 55.17,172.79 83.04,241.86 22.17,55.23 42.36,96.14 59.29,119.53 9.15,11.87 17.03,17.61 22.44,19.06 39.22,10.5 75.61,-22.5 61.44,-18.32 -20.6,3.89 -39.42,-28.69 -67,-85.37 -5.09,-10.78 -26.8,-62.25 -26.8,-62.25 -26.8,-62.28 -56.86,-152.95 -77.31,-220.03 38.21,71.11 102.5,155.75 135.64,164.63 14.87,3.98 40.06,-19.71 43.87,-33.91 13.41,-50.05 -101.16,-174.24 -178.05,-187.59 49.2,-67.26 166.19,-146.81 254.77,-123.07 23.67,6.34 45.34,20.12 63.13,43 1.49,2.57 7.07,3.34 4.6,-0.94 -21.15,-34.66 -49.86,-54.66 -82.32,-63.36 -87.23,-23.38 -200.99,36.01 -268.16,102.8 -8.08,-34.77 -31.32,-96.8 0.01,-92.03 -7.2,-5.56 -15.37,-4.85 -23.22,-2.61 -5.28,0.76 -22.61,11.34 -30.92,20.71 -2.79,5.05 -8.78,27.37 1.09,77.13 2.46,15.14 6.27,30.66 9.4,46 -5.58,10.1 -10.34,19.69 -9.63,27.85 1.16,11.91 12.56,20.76 24.69,26.91" /><path
         id="path3782"
         style="fill:#231f20;fill-opacity:1;fill-rule:nonzero;stroke:none"
         d="m 2430.17,1403.45 c 57.02,22.53 139.92,162.15 137.1,188.94 -68.54,-44.45 -124.38,-147.11 -137.1,-188.94 z m -17.89,-76.55 c 1.49,-8.29 8.85,-11.4 23.72,-7.41 49.37,13.23 147.93,140.38 201.02,215.49 1.66,1.89 7.3,-0.22 5.81,-2.8 -38.03,-60.91 -137.99,-226.14 -227.92,-250.23 -20.98,-5.63 -54.54,11.48 -59.44,29.74 -4.34,16.23 -3.91,30.84 -2.49,47.17 5.9,42.89 28.98,94.73 61.97,141.99 43.63,61.69 98.2,98.78 127.27,106.57 10.15,2.71 45.42,-4.49 50.49,-23.44 11.24,-41.92 -92.51,-174.08 -167.71,-196.41 -8.36,-17.46 -15.41,-42.53 -12.72,-60.67" /><path
         id="path3784"
         style="fill:#231f20;fill-opacity:1;fill-rule:nonzero;stroke:none"
         d="m 2816.9,1428.8 c 39.53,22.91 111.4,141.46 143.81,193.64 3.16,4.47 7.99,-0.03 6.51,-2.61 -41.63,-80.01 -121.96,-221.12 -162.54,-231.99 -6.75,-1.81 -15.83,2.29 -24.76,8.58 -9.79,6.8 -17.24,15.68 -19.23,23.12 -10.33,38.54 37.85,172.49 64.49,213.69 -48.74,-39.87 -126.22,-148.33 -161.77,-215.84 -6.43,-11.14 -11.82,-23.47 -16.74,-34.92 -12.45,-26.54 -12.29,-46.06 -0.89,-48.08 -19.01,-10.16 -41.03,7.13 -51.69,25.29 -2.64,4.37 -4.14,23.54 4.43,59.16 7.71,36.14 22.71,82.91 36.7,120 15.1,41.01 35.25,84.83 49.21,103.06 1.98,3.44 5.86,5.2 7.88,5.73 16.91,4.53 49.67,-14.95 54.2,-31.85 0.72,-2.71 -2.89,-0.05 -8.48,-0.82 -8.96,-1.69 -26.38,-36.79 -39.6,-68.6 -20.55,-50.43 -42.29,-109.9 -47.37,-131.56 4.53,12.81 13.77,29.79 24.34,47.12 55.81,94.68 150.37,217.85 173.35,224.01 16.23,4.35 47.66,-26.36 40.86,-36.16 -13.29,-18.06 -79.87,-188.82 -72.71,-220.97" /><path
         id="path3786"
         style="fill:#231f20;fill-opacity:1;fill-rule:nonzero;stroke:none"
         d="m 2909.65,1444.96 c 24.38,14.5 96.65,80.25 89.76,105.95 -34.42,-33.86 -75.39,-81.09 -89.76,-105.95 z m 67.79,150.07 c 0.37,-12.22 19.5,-18.69 27.9,-22.96 91.89,89.84 174.45,127.92 183.24,130.27 1.36,0.36 4.43,-0.26 4.96,-2.29 6.63,-0.41 -117.83,-71.44 -179.76,-135.14 10.6,-4.41 32.75,-19.49 34.54,-34.24 2.3,-46.49 -77.35,-106.25 -121.3,-118.03 -14.89,-3.98 -25.59,6.2 -32.95,20.17 -5.77,29.62 78.42,113.06 99.55,128.87 -9.98,7.47 -56.38,21.13 -58.28,52.51 -2.95,54.29 80.84,131.1 140.33,147.05 18.95,5.06 36.08,-23.69 39.3,-43.84 1.85,-9.65 -29.86,-61.63 -48.13,-66.52 -0.68,-0.19 -2.75,2.16 -2.07,2.33 2.03,0.55 34.65,60.03 32.37,73.92 -31.82,-5.64 -119.43,-97.96 -119.7,-132.1" /><path
         id="path3788"
         style="fill:#231f20;fill-opacity:1;fill-rule:nonzero;stroke:none"
         d="m 919.301,288.93 c -52.746,-14.129 -90.363,-8.989 -97.071,16.031 -9.785,36.508 73.782,116.891 90.684,121.41 0.676,0.188 1.348,0.379 2.207,-0.133 -17.695,-17.789 -76.933,-80.758 -68.953,-110.519 0.906,-3.379 6.043,-6.348 18.895,-2.899 20.292,5.43 43.906,14.66 70.671,28.352 67.676,207.289 192.646,460.387 244.036,474.16 24.35,6.52 57.74,-9.891 69.23,-36.531 -7.4,5.98 -15.39,6.019 -21.48,4.39 -39.9,-10.691 -141.43,-213.293 -215.76,-398.461 189.04,119.52 430.3,344.329 401.31,452.524 -17.21,64.246 -114.04,76.707 -233.74,44.629 C 940.629,817.93 691.359,533.711 714.918,445.801 c 7.43,-27.731 44.422,-35.942 62.359,-32.571 0,0 0.176,-0.679 -10.632,-3.582 -48.016,-12.867 -88.829,-9.308 -102.422,41.411 -24.637,91.961 164.98,358.031 514.587,451.711 73.03,19.57 242.93,34.66 272.65,-76.25 C 1499.12,648.68 1159.61,398.262 984.254,314.309 944.418,208.691 918.598,118.422 926.027,90.6992 929.469,77.8516 931.508,67.5313 944.23,68.7617 941.215,66.5 936.664,64.5508 933.949,63.832 915.695,58.9297 899.672,72.7617 892.965,97.7813 883.18,134.301 895.219,205.648 919.301,288.93" /><path
         id="path3790"
         style="fill:#231f20;fill-opacity:1;fill-rule:nonzero;stroke:none"
         d="m 1539.46,749.359 c 8.57,-4.949 14.67,-14.187 12.64,-14.73 -1.34,-0.367 -8.15,0.711 -14.69,-4.66 -9.55,-7.637 -33.91,-43.879 -38.94,-57.539 -6.21,-14.719 -24.21,-4.321 -28.15,7.672 -5.93,19.429 7.98,70.269 24.8,80.57 14.34,6.019 32.83,-3.524 44.34,-11.313 z M 1405.24,349.57 c -12.4,0.289 -33.84,12.66 -37.1,24.84 -10.51,39.219 48.72,213.09 82.75,259.172 2.47,4.289 5.68,5.867 8.38,6.59 16.23,4.359 49.85,-15.621 54.39,-32.543 0.72,-2.699 -2.89,-0.039 -9.16,-0.988 -28.44,-4.743 -79.78,-183.731 -80.47,-213.629 26.41,15.047 71.88,77.957 105.95,132.027 25.49,40.16 49.19,84.211 62.09,114.481 -3.29,4.191 -6.58,8.39 -8.76,16.5 -10.69,39.902 9.16,71.3 15.92,73.121 9.47,2.531 32.39,-7.27 36.2,-21.481 2.17,-8.101 -25.01,-58.148 -29.27,-66.539 4.27,-2.473 14.29,-1.961 27.13,1.469 44.64,11.969 123.73,54.898 131.54,85.262 3.23,9.558 52.44,-27.993 48.62,-43.512 -50.25,-20.711 -201.69,-175.078 -231.96,-232.481 12.69,12.11 37.62,24.59 66.7,32.391 49.36,13.219 111.01,13.059 144.61,-25.781 3.3,-4.18 1.99,-7.43 -0.94,-4.59 -23.85,24.051 -61.64,29.871 -127.23,12.293 -68.3,-18.301 -107.87,-78.91 -118.01,-81.633 -10.14,-2.719 -37.14,16.859 -35.48,29.633 1.97,44.019 114.59,183.637 180.95,236.207 -13.97,-7.367 -28.97,-13.57 -43.85,-17.547 -18.27,-4.891 -34.72,-5.684 -45.69,0.078 -20.19,-40.93 -41.79,-79.328 -58.31,-106.949 -44.61,-74.27 -99.66,-163.68 -131.38,-175.082 -2.71,-0.731 -4.73,-1.27 -7.62,-1.309" /><path
         id="path3792"
         style="fill:#231f20;fill-opacity:1;fill-rule:nonzero;stroke:none"
         d="m 1951.64,744.57 c 39.85,13.571 75.25,49.149 78.31,59.379 3.24,9.571 51.75,-28.16 47.26,-43.859 -49.57,-20.531 -208.52,-181.981 -238.12,-239.199 12.69,12.109 38.96,24.949 68.72,32.918 51.39,13.773 115.06,14.16 149.34,-24.5 3.3,-4.188 1.99,-7.438 -1.62,-4.778 -23.84,24.051 -60.96,30.051 -126.54,12.481 -68.99,-18.492 -103.82,-77.832 -114.64,-80.723 -10.15,-2.73 -50.67,24.109 -47.3,35.883 14.58,61.887 154.46,216.058 214.3,252.387 -17.97,-11.34 -43.44,-21.789 -67.11,-28.137 -27.05,-7.242 -53.15,-9.891 -63.75,-5.492 -19.18,9.359 -6.14,41.851 14.72,53.242 -3.49,-24.863 45.23,-33.551 86.43,-19.602" /><path
         id="path3794"
         style="fill:#231f20;fill-opacity:1;fill-rule:nonzero;stroke:none"
         d="m 2121.86,658.27 c 57.02,22.519 139.92,162.152 137.09,188.933 C 2190.41,802.738 2134.57,700.09 2121.86,658.27 Z m -17.9,-76.551 c 1.49,-8.297 8.85,-11.399 23.72,-7.418 49.36,13.23 147.93,140.379 201.02,215.488 1.66,1.891 7.3,-0.219 5.81,-2.801 -38.03,-60.918 -138,-226.129 -227.92,-250.226 -20.98,-5.621 -54.55,11.476 -59.44,29.738 -4.34,16.219 -3.91,30.84 -2.49,47.16 5.9,42.899 28.98,94.75 61.96,141.988 43.64,61.704 98.21,98.793 127.28,106.586 10.14,2.715 45.42,-4.504 50.49,-23.437 11.24,-41.926 -92.51,-174.098 -167.71,-196.406 -8.36,-17.461 -15.41,-42.539 -12.72,-60.672" /><path
         id="path3796"
         style="fill:#231f20;fill-opacity:1;fill-rule:nonzero;stroke:none"
         d="m 2371.73,894.098 c 3.33,3.781 5.86,5.187 8.57,5.91 16.23,4.344 48.98,-15.137 53.51,-32.043 0.73,-2.703 -2.2,0.137 -7.79,-0.645 -10.32,-2.039 -26.93,-34.75 -39.96,-67.23 -11.74,-29.238 -26.9,-67.36 -34.39,-96.199 23.33,56.269 75.75,131.195 122.66,188.695 21.3,26.004 38.51,42.937 52.34,48.094 7.27,2.668 42.79,-18.973 39.5,-25.653 -10.72,-19.543 -53.61,-83.945 -61.79,-142.668 31.73,11.403 70.24,54.332 102.2,102.754 0.49,0.86 4.36,2.629 5.41,1.457 -7.83,-19.492 -68.68,-116.968 -115.35,-129.468 -12.16,-3.262 -38.79,14.957 -40.97,23.078 -5.07,18.929 6.05,63.949 18.2,88.949 -52.42,-53.188 -76.95,-88.75 -109.35,-151.789 -24.52,-46.43 -49.15,-116.809 -32.46,-119.59 -18.34,-9.98 -40.19,6.629 -50.01,24.301 -2.96,5.719 -3.02,19.469 0.92,37.211 6.57,43.058 24.5,97.879 41.22,143.679 14.43,40.821 34.26,83.09 47.54,101.157" /><path
         id="path3798"
         style="fill:#231f20;fill-opacity:1;fill-rule:nonzero;stroke:none"
         d="m 2726.76,1067.5 c 7.9,-5.14 14.69,-14.19 11.97,-14.91 -1.35,-0.37 -7.48,0.89 -14.02,-4.49 -10.21,-7.81 -33.9,-43.87 -38.93,-57.537 -6.21,-14.708 -24.21,-4.317 -28.16,7.675 -5.93,19.422 8,70.272 24.12,80.392 15.02,6.19 33.52,-3.34 45.02,-11.13 z M 2591.88,667.531 c -11.73,0.481 -33.18,12.848 -36.44,25.02 -10.5,39.219 48.05,212.906 82.08,258.988 2.48,4.289 6.36,6.055 9.06,6.777 15.55,4.161 49.85,-15.632 54.38,-32.539 0.72,-2.703 -3.56,-0.234 -9.15,-1.004 -28.45,-4.726 -79.78,-183.734 -80.47,-213.625 38.35,21.872 111.9,142.325 142.45,193.274 3.83,4.648 8.66,0.144 7.18,-2.434 -41.81,-79.328 -119.79,-218.359 -160.81,-232.976 -2.7,-0.723 -4.73,-1.274 -8.28,-1.481" /><path
         id="path3800"
         style="fill:#231f20;fill-opacity:1;fill-rule:nonzero;stroke:none"
         d="m 2892.9,890.965 c -14.84,-25.723 -116.27,-174.664 -144.67,-182.274 -1.35,-0.359 -5.09,0.09 -6.62,0.399 -13.81,2.82 -38.29,23.808 -41.91,37.332 -19.75,73.699 94.71,265.998 219.13,299.338 25.7,6.88 62.42,5.13 70.93,-26.66 3.08,-11.49 0.07,-24.62 -4.33,-35.217 -1.18,-1.043 -2.71,-0.731 -2.21,0.129 1.75,6.992 3.62,16.188 0.91,26.338 -5.44,20.28 -21.01,26.98 -40.92,20.19 -38.68,-12.52 -80.44,-54.157 -114.43,-103.13 -49.57,-71.992 -77.45,-170.781 -70.46,-172.531 1.53,-0.309 2.88,0.051 4.74,1.269 20.32,13.422 96.69,107.082 123.89,146.262 9.26,14.07 41.8,68.457 56.18,82.449 11.71,10.391 44.66,-20.644 44.13,-29.48 -5.19,5.859 -46.29,-84.16 -55,-132.867 -1.51,-10.563 -2.05,-19.403 -0.59,-24.813 39.33,23.602 111.22,142.141 142.64,192.602 2.47,4.285 7.29,-0.215 5.81,-2.793 -41.62,-80 -121.58,-222.469 -162.17,-233.336 -3.37,-0.91 -7.12,-0.461 -12.57,0.969 -10.91,2.879 -27.57,13.64 -30.84,25.8 -1.8,6.77 -1.27,15.61 -1.29,26.481 1.42,27.195 11.33,63.191 19.65,83.543" /><path
         id="path3802"
         style="fill:#ffffff;fill-opacity:1;fill-rule:nonzero;stroke:none"
         d="m 162.91,554.691 c 162.969,43.668 449.297,295.063 421.942,397.172 -11.239,41.922 -74.071,51.907 -145.235,52.407 -87.117,0.57 -182.351,-11.891 -198.301,47.61 -30.429,113.6 163.711,262.75 261.524,292.58 60.996,18.52 106.23,14.7 119.512,-37.56 20.207,-80.83 -74.082,-199.59 -145.762,-218.8 -13.524,-3.62 -35.262,-3.65 -39.246,11.23 -7.434,27.73 11.152,63.86 22.5,75.61 -7.063,-14.21 -7.317,-29.5 -4.778,-38.97 1.094,-4.06 5.149,-2.97 9.2,-1.89 27.734,7.43 139.297,118.51 131.601,182.39 -2.422,22.55 -22.312,23.74 -48.008,16.86 -7.429,-1.99 -16.043,-5.03 -24.656,-8.06 -84.015,-32.66 -252.93,-197.51 -234.269,-267.16 10.507,-39.22 79.961,-38.73 153.332,-39.36 82.031,-0.49 167.851,-4.31 187.957,-79.367 C 669.91,791.289 371.922,556.34 187.324,506.879 142.684,494.922 74.3242,490.371 60.0078,543.801 33.1914,643.871 295.547,887.391 383.32,908.738 217.176,812.039 85.457,616.559 98.8555,566.52 105.926,540.148 141.27,548.891 162.91,554.691" /><path
         id="path3804"
         style="fill:#ffffff;fill-opacity:1;fill-rule:nonzero;stroke:none"
         d="m 845.684,1219.62 c 7.898,-5.14 14.675,-14.19 12.644,-14.73 -2.031,-0.55 -8.164,0.7 -14.687,-4.67 -10.235,-7.81 -33.914,-43.88 -38.946,-57.55 -6.211,-14.71 -24.218,-4.3 -28.144,7.69 -5.938,19.42 7.98,70.26 24.785,80.57 14.336,6.01 32.832,-3.53 44.348,-11.31 z M 673.301,797.27 C 567.617,699.371 495.633,597.461 471.172,496.691 c -3.313,-14.66 -3.488,-24.859 -1.672,-31.609 2.715,-10.152 9.707,-11.902 18.496,-9.551 9.473,2.539 19.875,9.68 29.25,17.981 67.703,63.808 117.645,193.879 156.055,323.758 z m 79.441,82.171 c 13.43,9.395 26.856,18.789 41.133,27.684 9.922,6.289 21.281,7.16 12.715,1.242 C 785.965,893.406 767.352,879 748.926,863.922 704.129,690.289 640.242,490.531 518.301,420.898 c -6.895,-4.027 -14.153,-6.687 -21.594,-8.687 -25.019,-6.699 -49.062,-0.832 -56.855,28.25 -1.993,7.437 -2.813,15.91 -2.149,26.969 5.391,93.492 107.227,238.179 241.465,353.89 8.047,26.782 14.055,53.032 21.418,79.653 21.727,81.203 39.961,148.417 51.199,176.787 3.594,8.21 10.664,22.43 21.301,26.01 15.008,6.2 50.711,-16.13 55.242,-33.03 0.723,-2.72 -2.226,0.13 -7.801,-0.65 -6.269,-0.95 -12.941,-8.54 -18.828,-21.71 -10.48,-23.1 -26.777,-84.009 -39.66,-136.021 -3.543,-11.093 -5.742,-21.824 -9.297,-32.918" /><path
         id="path3806"
         style="fill:#ffffff;fill-opacity:1;fill-rule:nonzero;stroke:none"
         d="m 1043.58,1224.81 c -12.67,-4.12 -29.2,8.85 -32.77,19.48 -5.38,17.4 11.17,53 28.88,59.92 11.99,3.94 41.14,-2.01 48.95,-12.25 -20.11,-6.1 -38.48,-64.67 -45.06,-67.15 z m -83.756,-28.24 c -13.527,-3.62 -29.375,9.52 -33.625,19.98 -5.39,17.4 11.172,53 29.551,60.1 11.992,3.93 40.773,-0.68 48.95,-12.25 -20.786,-6.3 -38.97,-65.52 -44.876,-67.83 z m 84.496,-25.93 C 921.922,1137.85 841.648,872.098 883.867,866.012 c 42.039,-5.41 109.746,128.703 136.573,209.818 -5.01,5.17 -17.21,23.65 -16.32,31.14 0.22,7.3 15.07,33.03 23.68,36.07 6.58,2.48 15.47,-0.94 17.36,-2.6 18.47,-17.53 38.87,-28.73 65.38,-19.46 44.21,16.2 62.16,49.28 69.78,50.6 -0.84,-10.38 -21.91,-39.94 -52.15,-59.63 -13.6,-8.73 -27.44,-13.89 -38.26,-16.79 -10.14,-2.71 -17.26,-3.17 -21.01,-2.72 5.84,-94.835 -108.052,-229.717 -180.814,-244.866 -31.641,-6.308 -58.82,13.957 -65.715,39.649 -29.531,110.226 89.024,260.127 195.879,288.757 25.69,6.89 38.51,2.35 44.33,-0.44 3.91,-1.12 1.89,-1.66 -0.81,-2.39 -6.95,-1.14 -12.72,-1.24 -17.45,-2.51" /><path
         id="path3808"
         style="fill:#ffffff;fill-opacity:1;fill-rule:nonzero;stroke:none"
         d="m 1383.67,1023.86 c -10.32,38.53 33.13,171.21 59.59,213.1 -100.24,-118.18 -139.23,-254.015 -158.15,-259.081 -9.48,-2.539 -36.92,13.301 -40.54,26.821 -6.89,25.7 19.09,137.03 53.35,190.41 -57.25,-59.55 -103.11,-139.97 -137.61,-208.637 -8.06,-15.93 -13.13,-26.719 -16.24,-34.063 -12.96,-27.394 -12.71,-41.828 -1.3,-43.84 -19.01,-10.164 -42.21,6.086 -52.7,23.567 -2.62,4.375 -4.81,23.359 4.44,59.168 14.4,62.575 38.3,135.655 63.72,189.575 6.39,14.03 13.31,26.03 19.13,34.11 1.97,3.44 5.85,5.19 7.88,5.74 16.91,4.52 49.67,-14.96 54.19,-31.87 0.73,-2.7 -2.88,-0.04 -8.46,-0.82 -4.93,-0.59 -12.58,-9.89 -18.47,-23.06 -20.2,-40.93 -55.97,-145.46 -64.46,-176 27.88,69.07 138.61,240.07 165.38,253.77 1.17,1.04 2.53,1.4 3.87,1.76 13.53,3.63 44.91,-24.2 39.96,-32.78 -24.7,-45.76 -59.48,-159.44 -53.14,-183.1 42,97.5 136.97,257.02 165.37,264.64 14.88,3.98 46.97,-26.56 40.18,-36.35 -13.28,-18.06 -79.46,-193.06 -71.49,-222.81 41.25,21.92 114.42,143.72 146.64,196.57 3.83,4.65 8.67,0.15 7.19,-2.43 -41.62,-80.01 -122.94,-222.83 -162.84,-233.527 -15.55,-4.16 -42.04,16.277 -45.49,29.137" /><path
         id="path3810"
         style="fill:#ffffff;fill-opacity:1;fill-rule:nonzero;stroke:none"
         d="m 1713.08,1214.31 c -14.85,-25.73 -116.27,-174.67 -144.67,-182.27 -1.35,-0.36 -5.1,0.08 -6.63,0.4 -13.8,2.82 -38.28,23.81 -41.9,37.33 -19.74,73.71 94.7,266 219.13,299.34 25.7,6.88 62.4,5.12 70.91,-26.66 3.09,-11.5 0.08,-24.62 -4.33,-35.23 -1.17,-1.03 -2.7,-0.72 -2.2,0.14 1.75,6.99 3.63,16.19 0.91,26.34 -5.43,20.28 -21,26.98 -40.92,20.19 -38.68,-12.53 -80.43,-54.16 -114.43,-103.13 -49.56,-71.98 -77.44,-170.77 -70.45,-172.53 1.53,-0.31 2.89,0.05 4.73,1.27 20.32,13.42 96.69,107.08 123.89,146.26 9.27,14.08 41.8,68.45 56.18,82.45 11.71,10.39 44.67,-20.64 44.13,-29.48 -5.19,5.86 -46.3,-84.16 -54.99,-132.87 -1.52,-10.56 -2.05,-19.4 -0.6,-24.81 39.34,23.59 111.22,142.14 142.63,192.6 2.48,4.29 7.31,-0.22 5.82,-2.79 -41.62,-80.01 -121.58,-222.47 -162.15,-233.34 -3.39,-0.91 -7.13,-0.46 -12.58,0.97 -10.92,2.89 -27.57,13.64 -30.83,25.8 -1.82,6.77 -1.28,15.61 -1.3,26.48 1.4,27.19 11.33,63.19 19.65,83.54" /><path
         id="path3812"
         style="fill:#ffffff;fill-opacity:1;fill-rule:nonzero;stroke:none"
         d="m 1934.99,1416.55 c 3.33,3.79 5.86,5.18 8.56,5.92 16.22,4.34 48.99,-15.14 53.52,-32.05 0.72,-2.71 -2.21,0.13 -7.79,-0.64 -10.33,-2.04 -26.93,-34.75 -39.97,-67.23 -11.74,-29.24 -26.89,-67.37 -34.38,-96.19 23.33,56.25 75.73,131.18 122.66,188.69 21.3,26 38.51,42.93 52.34,48.08 7.27,2.68 42.77,-18.97 39.49,-25.65 -10.71,-19.53 -53.61,-83.94 -61.79,-142.67 31.73,11.41 70.23,54.34 102.19,102.76 0.5,0.86 4.38,2.63 5.42,1.46 -7.83,-19.49 -68.68,-116.97 -115.34,-129.48 -12.17,-3.26 -38.8,14.97 -40.98,23.08 -5.06,18.94 6.06,63.96 18.21,88.96 -52.42,-53.2 -76.97,-88.75 -109.35,-151.79 -24.53,-46.43 -49.16,-116.82 -32.47,-119.59 -18.34,-9.99 -40.18,6.62 -49.99,24.3 -2.99,5.72 -3.05,19.47 0.9,37.2 6.58,43.07 24.51,97.89 41.22,143.68 14.42,40.83 34.27,83.1 47.55,101.16" /><path
         id="path3814"
         style="fill:#ffffff;fill-opacity:1;fill-rule:nonzero;stroke:none"
         d="m 2202.06,1347.51 c 3.16,-6.4 5.79,-10.78 7.68,-12.44 57.34,24.06 111.72,132.13 121.15,178.14 -43.59,-24 -124.61,-154.42 -128.83,-165.7 z m -44.69,42.38 c 25.64,90.94 55.17,172.78 83.04,241.86 22.17,55.22 42.36,96.14 59.29,119.53 9.15,11.86 17.03,17.6 22.44,19.05 39.22,10.51 75.61,-22.5 61.44,-18.32 -20.6,3.9 -39.42,-28.68 -67,-85.36 -5.09,-10.78 -26.8,-62.26 -26.8,-62.26 -26.8,-62.27 -56.86,-152.95 -77.31,-220.03 38.21,71.12 102.5,155.75 135.64,164.63 14.87,3.99 40.06,-19.7 43.87,-33.9 13.41,-50.05 -101.16,-174.24 -178.05,-187.59 49.2,-67.27 166.19,-146.82 254.77,-123.08 23.67,6.34 45.34,20.13 63.13,43.01 1.49,2.57 7.08,3.34 4.6,-0.95 -21.15,-34.66 -49.86,-54.66 -82.32,-63.36 -87.23,-23.38 -200.99,36.02 -268.16,102.81 -8.08,-34.78 -31.32,-96.81 0.02,-92.04 -7.21,-5.55 -15.38,-4.84 -23.23,-2.6 -5.28,0.76 -22.6,11.34 -30.91,20.71 -2.8,5.05 -8.78,27.36 1.08,77.12 2.46,15.15 6.27,30.66 9.4,46.01 -5.58,10.09 -10.34,19.68 -9.63,27.85 1.16,11.91 12.56,20.76 24.69,26.91" /><path
         id="path3816"
         style="fill:#ffffff;fill-opacity:1;fill-rule:nonzero;stroke:none"
         d="m 2445.76,1384.54 c 57.02,22.53 139.92,162.15 137.1,188.93 -68.53,-44.45 -124.37,-147.11 -137.1,-188.93 z m -17.89,-76.56 c 1.49,-8.28 8.85,-11.39 23.72,-7.41 49.37,13.23 147.93,140.38 201.02,215.49 1.66,1.9 7.3,-0.21 5.81,-2.79 -38.03,-60.92 -137.99,-226.14 -227.92,-250.23 -20.98,-5.63 -54.54,11.47 -59.44,29.73 -4.34,16.23 -3.91,30.84 -2.49,47.17 5.9,42.89 28.98,94.74 61.97,141.99 43.63,61.69 98.2,98.78 127.27,106.57 10.15,2.72 45.42,-4.49 50.49,-23.43 11.24,-41.93 -92.51,-174.09 -167.71,-196.41 -8.35,-17.46 -15.41,-42.54 -12.72,-60.68" /><path
         id="path3818"
         style="fill:#ffffff;fill-opacity:1;fill-rule:nonzero;stroke:none"
         d="m 2832.49,1409.89 c 39.53,22.91 111.41,141.45 143.81,193.63 3.15,4.48 7.99,-0.03 6.5,-2.61 -41.62,-80 -121.95,-221.12 -162.53,-231.99 -6.75,-1.8 -15.83,2.29 -24.76,8.59 -9.79,6.79 -17.24,15.67 -19.23,23.11 -10.33,38.55 37.85,172.49 64.49,213.69 -48.74,-39.87 -126.22,-148.33 -161.77,-215.84 -6.43,-11.14 -11.82,-23.46 -16.74,-34.92 -12.45,-26.53 -12.29,-46.05 -0.88,-48.07 -19.02,-10.17 -41.04,7.13 -51.7,25.28 -2.64,4.37 -4.14,23.54 4.43,59.17 7.71,36.13 22.71,82.91 36.7,120 15.1,41 35.25,84.82 49.21,103.05 1.98,3.44 5.86,5.2 7.88,5.74 16.91,4.53 49.67,-14.95 54.2,-31.86 0.72,-2.7 -2.89,-0.05 -8.48,-0.82 -8.96,-1.69 -26.38,-36.79 -39.6,-68.59 -20.54,-50.44 -42.29,-109.9 -47.37,-131.56 4.53,12.81 13.77,29.78 24.34,47.11 55.82,94.68 150.37,217.86 173.35,224.02 16.23,4.34 47.66,-26.37 40.86,-36.16 -13.29,-18.06 -79.87,-188.82 -72.71,-220.97" /><path
         id="path3820"
         style="fill:#ffffff;fill-opacity:1;fill-rule:nonzero;stroke:none"
         d="m 2925.24,1426.04 c 24.38,14.5 96.64,80.26 89.76,105.95 -34.43,-33.86 -75.39,-81.08 -89.76,-105.95 z m 67.79,150.07 c 0.37,-12.22 19.5,-18.69 27.9,-22.96 91.88,89.85 174.45,127.92 183.24,130.28 1.36,0.36 4.42,-0.27 4.96,-2.3 6.63,-0.4 -117.83,-71.43 -179.77,-135.14 10.61,-4.41 32.76,-19.49 34.55,-34.24 2.3,-46.49 -77.36,-106.25 -121.3,-118.02 -14.89,-3.99 -25.59,6.19 -32.95,20.16 -5.76,29.62 78.41,113.06 99.55,128.87 -9.98,7.47 -56.39,21.13 -58.28,52.51 -2.95,54.3 80.84,131.11 140.33,147.05 18.94,5.07 36.07,-23.68 39.3,-43.84 1.85,-9.64 -29.87,-61.63 -48.13,-66.52 -0.68,-0.19 -2.75,2.16 -2.07,2.33 2.02,0.55 34.65,60.03 32.36,73.92 -31.81,-5.64 -119.42,-97.96 -119.69,-132.1" /><path
         id="path3822"
         style="fill:#ffffff;fill-opacity:1;fill-rule:nonzero;stroke:none"
         d="m 934.891,270.02 c -52.743,-14.129 -90.36,-9 -97.071,16.019 -9.785,36.52 73.782,116.902 90.684,121.422 0.676,0.18 1.348,0.371 2.207,-0.141 -17.695,-17.781 -76.934,-80.761 -68.953,-110.519 0.906,-3.379 6.043,-6.34 18.894,-2.903 20.293,5.434 43.907,14.661 70.676,28.352 67.672,207.301 192.642,460.391 244.032,474.16 24.35,6.531 57.74,-9.89 69.23,-36.531 -7.4,5.992 -15.39,6.031 -21.48,4.391 -39.9,-10.688 -141.43,-213.29 -215.76,-398.45 189.05,119.512 430.31,344.321 401.31,452.52 -17.21,64.246 -114.04,76.707 -233.74,44.625 C 956.219,799.012 706.953,514.789 730.508,426.879 c 7.43,-27.719 44.422,-35.938 62.363,-32.57 0,0 0.176,-0.68 -10.637,-3.579 -48.015,-12.859 -88.828,-9.308 -102.421,41.418 -24.637,91.961 164.98,358.024 514.587,451.707 73.03,19.571 242.93,34.657 272.65,-76.253 C 1514.71,629.762 1175.2,379.34 999.844,295.398 960.008,189.77 934.188,99.5117 941.621,71.7813 c 3.438,-12.8516 5.477,-23.1719 18.203,-21.9415 -3.019,-2.25 -7.57,-4.2109 -10.285,-4.9296 -18.25,-4.8907 -34.277,8.9296 -40.984,33.9492 -9.785,36.5316 2.254,107.8786 26.336,191.1606" /><path
         id="path3824"
         style="fill:#ffffff;fill-opacity:1;fill-rule:nonzero;stroke:none"
         d="m 1555.05,730.449 c 8.57,-4.949 14.68,-14.187 12.64,-14.738 -1.34,-0.359 -8.15,0.711 -14.69,-4.66 -9.55,-7.629 -33.91,-43.879 -38.94,-57.539 -6.21,-14.711 -24.21,-4.313 -28.15,7.679 -5.93,19.418 7.99,70.258 24.8,80.571 14.34,6.008 32.83,-3.532 44.34,-11.313 z M 1420.83,330.648 c -12.4,0.293 -33.84,12.672 -37.1,24.852 -10.51,39.211 48.72,213.082 82.75,259.172 2.47,4.277 5.68,5.859 8.38,6.59 16.23,4.347 49.86,-15.633 54.39,-32.543 0.72,-2.707 -2.89,-0.039 -9.16,-1 -28.44,-4.731 -79.78,-183.731 -80.47,-213.617 26.41,15.046 71.88,77.957 105.96,132.019 25.48,40.168 49.18,84.211 62.08,114.481 -3.29,4.187 -6.58,8.386 -8.75,16.507 -10.7,39.891 9.16,71.301 15.91,73.11 9.47,2.531 32.4,-7.258 36.2,-21.469 2.17,-8.109 -25.01,-58.16 -29.27,-66.551 4.27,-2.469 14.29,-1.961 27.14,1.481 44.63,11.961 123.72,54.89 131.53,85.25 3.23,9.558 52.44,-27.989 48.62,-43.5 -50.25,-20.719 -201.69,-175.078 -231.96,-232.481 12.69,12.11 37.62,24.59 66.7,32.383 49.36,13.219 111.01,13.066 144.61,-25.773 3.3,-4.18 1.99,-7.43 -0.94,-4.59 -23.85,24.043 -61.64,29.863 -127.23,12.281 -68.3,-18.301 -107.87,-78.898 -118.01,-81.629 -10.14,-2.711 -37.14,16.867 -35.48,29.629 1.97,44.02 114.59,183.641 180.95,236.211 -13.97,-7.371 -28.97,-13.563 -43.85,-17.551 -18.26,-4.89 -34.72,-5.68 -45.69,0.078 -20.19,-40.929 -41.79,-79.316 -58.31,-106.937 -44.61,-74.281 -99.66,-163.68 -131.38,-175.09 -2.71,-0.723 -4.73,-1.27 -7.62,-1.313" /><path
         id="path3826"
         style="fill:#ffffff;fill-opacity:1;fill-rule:nonzero;stroke:none"
         d="m 1967.24,725.648 c 39.84,13.582 75.24,49.153 78.3,59.391 3.24,9.57 51.75,-28.168 47.26,-43.859 -49.57,-20.539 -208.52,-181.981 -238.12,-239.211 12.69,12.113 38.96,24.953 68.72,32.922 51.39,13.769 115.07,14.16 149.34,-24.493 3.3,-4.187 2,-7.437 -1.62,-4.789 -23.84,24.063 -60.96,30.051 -126.54,12.481 -68.99,-18.481 -103.82,-77.828 -114.64,-80.719 -10.15,-2.723 -50.67,24.109 -47.29,35.879 14.58,61.891 154.45,216.059 214.29,252.391 -17.97,-11.34 -43.44,-21.789 -67.11,-28.129 -27.05,-7.25 -53.15,-9.903 -63.75,-5.492 -19.18,9.351 -6.14,41.839 14.72,53.23 -3.49,-24.852 45.23,-33.539 86.44,-19.602" /><path
         id="path3828"
         style="fill:#ffffff;fill-opacity:1;fill-rule:nonzero;stroke:none"
         d="m 2137.45,639.352 c 57.02,22.519 139.92,162.148 137.09,188.937 C 2206,783.832 2150.16,681.172 2137.45,639.352 Z m -17.9,-76.551 c 1.49,-8.301 8.85,-11.403 23.72,-7.41 49.37,13.218 147.93,140.379 201.02,215.488 1.66,1.883 7.3,-0.231 5.81,-2.809 -38.03,-60.91 -138,-226.129 -227.92,-250.23 -20.98,-5.621 -54.54,11.48 -59.44,29.75 -4.34,16.219 -3.91,30.832 -2.49,47.148 5.9,42.903 28.98,94.75 61.97,142 43.63,61.692 98.2,98.785 127.27,106.578 10.14,2.715 45.42,-4.5 50.49,-23.437 11.24,-41.918 -92.51,-174.09 -167.71,-196.41 -8.36,-17.457 -15.41,-42.539 -12.72,-60.668" /><path
         id="path3830"
         style="fill:#ffffff;fill-opacity:1;fill-rule:nonzero;stroke:none"
         d="m 2387.32,875.184 c 3.33,3.777 5.86,5.183 8.57,5.906 16.23,4.348 48.98,-15.137 53.51,-32.039 0.73,-2.707 -2.2,0.137 -7.79,-0.645 -10.32,-2.043 -26.93,-34.758 -39.96,-67.234 -11.74,-29.242 -26.9,-67.352 -34.39,-96.192 23.33,56.27 75.75,131.192 122.66,188.688 21.3,26.008 38.51,42.941 52.34,48.098 7.27,2.664 42.79,-18.977 39.5,-25.657 -10.72,-19.539 -53.61,-83.937 -61.79,-142.668 31.73,11.399 70.24,54.329 102.2,102.758 0.49,0.86 4.36,2.625 5.41,1.453 -7.83,-19.492 -68.67,-116.972 -115.34,-129.472 -12.17,-3.258 -38.8,14.961 -40.98,23.09 -5.07,18.921 6.05,63.941 18.2,88.941 -52.42,-53.18 -76.95,-88.75 -109.35,-151.789 -24.52,-46.434 -49.14,-116.801 -32.45,-119.582 -18.34,-9.988 -40.2,6.629 -50.01,24.289 -2.97,5.723 -3.03,19.473 0.91,37.211 6.58,43.07 24.51,97.879 41.22,143.68 14.43,40.82 34.26,83.097 47.54,101.164" /><path
         id="path3832"
         style="fill:#ffffff;fill-opacity:1;fill-rule:nonzero;stroke:none"
         d="m 2742.35,1048.58 c 7.9,-5.13 14.69,-14.19 11.97,-14.91 -1.35,-0.36 -7.48,0.9 -14.02,-4.48 -10.21,-7.81 -33.89,-43.87 -38.93,-57.542 -6.21,-14.707 -24.21,-4.316 -28.16,7.676 -5.93,19.422 8,70.276 24.12,80.386 15.02,6.2 33.52,-3.33 45.02,-11.13 z M 2607.47,648.609 c -11.73,0.481 -33.17,12.852 -36.44,25.02 -10.5,39.23 48.05,212.91 82.08,258.996 2.48,4.285 6.36,6.055 9.06,6.777 15.55,4.161 49.85,-15.636 54.38,-32.539 0.72,-2.707 -3.56,-0.234 -9.15,-1.008 -28.45,-4.726 -79.78,-183.726 -80.47,-213.625 38.35,21.879 111.9,142.329 142.45,193.274 3.83,4.648 8.67,0.148 7.18,-2.43 -41.81,-79.324 -119.79,-218.363 -160.81,-232.984 -2.69,-0.719 -4.73,-1.258 -8.28,-1.481" /><path
         id="path3834"
         style="fill:#ffffff;fill-opacity:1;fill-rule:nonzero;stroke:none"
         d="m 2908.49,872.047 c -14.84,-25.723 -116.26,-174.668 -144.67,-182.277 -1.35,-0.36 -5.09,0.089 -6.62,0.402 -13.81,2.828 -38.29,23.808 -41.91,37.34 -19.74,73.699 94.71,265.992 219.13,299.328 25.7,6.89 62.41,5.13 70.93,-26.66 3.08,-11.492 0.07,-24.617 -4.34,-35.211 -1.18,-1.047 -2.7,-0.735 -2.2,0.125 1.75,6.992 3.62,16.191 0.91,26.34 -5.44,20.276 -21.01,26.976 -40.92,20.196 -38.68,-12.532 -80.44,-54.161 -114.43,-103.138 -49.57,-71.992 -77.45,-170.781 -70.46,-172.531 1.53,-0.313 2.89,0.051 4.74,1.269 20.32,13.418 96.69,107.083 123.89,146.262 9.27,14.074 41.8,68.457 56.18,82.453 11.71,10.391 44.66,-20.644 44.13,-29.484 -5.19,5.859 -46.3,-84.16 -55,-132.871 -1.51,-10.559 -2.05,-19.391 -0.6,-24.801 39.34,23.59 111.23,142.137 142.64,192.594 2.47,4.289 7.3,-0.215 5.81,-2.793 -41.61,-80 -121.57,-222.469 -162.16,-233.34 -3.37,-0.91 -7.12,-0.461 -12.56,0.98 -10.92,2.879 -27.58,13.629 -30.84,25.801 -1.81,6.77 -1.28,15.598 -1.3,26.469 1.42,27.199 11.33,63.195 19.65,83.547" /></g></g></svg>